<svg width="801" height="204" viewBox="0 0 801 204" fill="none" xmlns="http://www.w3.org/2000/svg">
<path d="M0 0H290L284.591 91.4715L0 97V0Z" fill="#FFFDC6"/>
<path d="M320 3H608L602.628 94.4715L320 100V3Z" fill="#7FFFAB"/>
<path d="M176 204L-1.52588e-05 204L3.2826 112.528L176 107L176 204Z" fill="#C6F5FF"/>
<path d="M69.392 40.1875H56.9489C56.7216 38.5777 56.2576 37.1477 55.5568 35.8977C54.8561 34.6288 53.9564 33.5492 52.858 32.6591C51.7595 31.7689 50.4905 31.0871 49.0511 30.6136C47.6307 30.1402 46.0871 29.9034 44.4205 29.9034C41.4091 29.9034 38.786 30.6515 36.5511 32.1477C34.3163 33.625 32.5833 35.7841 31.3523 38.625C30.1212 41.447 29.5057 44.875 29.5057 48.9091C29.5057 53.0568 30.1212 56.5417 31.3523 59.3636C32.6023 62.1856 34.3447 64.3163 36.5795 65.7557C38.8144 67.1951 41.3996 67.9148 44.3352 67.9148C45.983 67.9148 47.5076 67.697 48.9091 67.2614C50.3295 66.8258 51.589 66.1913 52.6875 65.358C53.786 64.5057 54.6951 63.4735 55.4148 62.2614C56.1534 61.0492 56.6648 59.6667 56.9489 58.1136L69.392 58.1705C69.0701 60.8409 68.2652 63.4167 66.9773 65.8977C65.7083 68.3598 63.9943 70.5663 61.8352 72.517C59.6951 74.4489 57.1383 75.983 54.1648 77.1193C51.2102 78.2367 47.8674 78.7955 44.1364 78.7955C38.947 78.7955 34.3068 77.6212 30.2159 75.2727C26.1439 72.9242 22.9242 69.5246 20.5568 65.0739C18.2083 60.6231 17.0341 55.2348 17.0341 48.9091C17.0341 42.5644 18.2273 37.1667 20.6136 32.7159C23 28.2652 26.2386 24.875 30.3295 22.5455C34.4205 20.197 39.0227 19.0227 44.1364 19.0227C47.5076 19.0227 50.6326 19.4962 53.5114 20.4432C56.4091 21.3902 58.9754 22.7727 61.2102 24.5909C63.4451 26.3901 65.2633 28.5966 66.6648 31.2102C68.0852 33.8239 68.9943 36.8163 69.392 40.1875ZM77.9858 78V34.3636H89.7188V41.9773H90.1733C90.9688 39.2689 92.304 37.2235 94.179 35.8409C96.054 34.4394 98.2131 33.7386 100.656 33.7386C101.262 33.7386 101.916 33.7765 102.616 33.8523C103.317 33.928 103.933 34.0322 104.463 34.1648V44.9034C103.895 44.733 103.109 44.5814 102.105 44.4489C101.101 44.3163 100.183 44.25 99.3494 44.25C97.5691 44.25 95.9782 44.6383 94.5767 45.4148C93.1941 46.1723 92.0956 47.233 91.2812 48.5966C90.4858 49.9602 90.0881 51.5322 90.0881 53.3125V78H77.9858ZM128.575 78.8523C124.087 78.8523 120.223 77.9432 116.984 76.125C113.765 74.2879 111.284 71.6932 109.541 68.3409C107.799 64.9697 106.928 60.983 106.928 56.3807C106.928 51.892 107.799 47.9527 109.541 44.5625C111.284 41.1723 113.736 38.5303 116.899 36.6364C120.081 34.7424 123.812 33.7955 128.092 33.7955C130.971 33.7955 133.651 34.2595 136.132 35.1875C138.632 36.0966 140.81 37.4697 142.666 39.3068C144.541 41.1439 146 43.4545 147.041 46.2386C148.083 49.0038 148.604 52.2424 148.604 55.9545V59.2784H111.757V51.7784H137.212C137.212 50.036 136.833 48.4924 136.075 47.1477C135.318 45.803 134.267 44.7519 132.922 43.9943C131.596 43.2178 130.053 42.8295 128.291 42.8295C126.454 42.8295 124.825 43.2557 123.405 44.108C122.003 44.9413 120.905 46.0682 120.109 47.4886C119.314 48.8902 118.907 50.4527 118.888 52.1761V59.3068C118.888 61.4659 119.286 63.3314 120.081 64.9034C120.895 66.4754 122.041 67.6875 123.518 68.5398C124.996 69.392 126.748 69.8182 128.774 69.8182C130.119 69.8182 131.35 69.6288 132.467 69.25C133.585 68.8712 134.541 68.303 135.337 67.5455C136.132 66.7879 136.738 65.8598 137.155 64.7614L148.348 65.5C147.78 68.1894 146.615 70.5379 144.854 72.5455C143.111 74.5341 140.857 76.0871 138.092 77.2045C135.346 78.303 132.174 78.8523 128.575 78.8523ZM168.945 78.8239C166.161 78.8239 163.679 78.3409 161.501 77.375C159.323 76.3902 157.6 74.9413 156.331 73.0284C155.081 71.0966 154.456 68.6913 154.456 65.8125C154.456 63.3883 154.901 61.3523 155.791 59.7045C156.681 58.0568 157.893 56.7311 159.428 55.7273C160.962 54.7235 162.704 53.9659 164.655 53.4545C166.625 52.9432 168.689 52.5833 170.848 52.375C173.386 52.1098 175.431 51.8636 176.984 51.6364C178.537 51.3902 179.664 51.0303 180.365 50.5568C181.066 50.0833 181.416 49.3826 181.416 48.4545V48.2841C181.416 46.4848 180.848 45.0928 179.712 44.108C178.594 43.1231 177.003 42.6307 174.939 42.6307C172.761 42.6307 171.028 43.1136 169.74 44.0795C168.452 45.0265 167.6 46.2197 167.183 47.6591L155.99 46.75C156.558 44.0985 157.676 41.8068 159.342 39.875C161.009 37.9242 163.159 36.428 165.791 35.3864C168.443 34.3258 171.511 33.7955 174.996 33.7955C177.42 33.7955 179.74 34.0795 181.956 34.6477C184.191 35.2159 186.17 36.0966 187.893 37.2898C189.636 38.483 191.009 40.017 192.013 41.892C193.017 43.7481 193.518 45.9735 193.518 48.5682V78H182.041V71.9489H181.7C181 73.3125 180.062 74.5152 178.888 75.5568C177.714 76.5795 176.303 77.3845 174.655 77.9716C173.007 78.5398 171.104 78.8239 168.945 78.8239ZM172.411 70.4716C174.191 70.4716 175.763 70.1212 177.126 69.4205C178.49 68.7008 179.56 67.7348 180.337 66.5227C181.113 65.3106 181.501 63.9375 181.501 62.4034V57.7727C181.123 58.0189 180.602 58.2462 179.939 58.4545C179.295 58.6439 178.566 58.8239 177.751 58.9943C176.937 59.1458 176.123 59.2879 175.308 59.4205C174.494 59.5341 173.755 59.6383 173.092 59.733C171.672 59.9413 170.431 60.2727 169.371 60.7273C168.31 61.1818 167.486 61.7973 166.899 62.5739C166.312 63.3314 166.018 64.2784 166.018 65.4148C166.018 67.0625 166.615 68.322 167.808 69.1932C169.02 70.0455 170.554 70.4716 172.411 70.4716ZM226.118 34.3636V43.4545H199.839V34.3636H226.118ZM205.805 23.9091H217.908V64.5909C217.908 65.7083 218.078 66.5795 218.419 67.2045C218.76 67.8106 219.233 68.2367 219.839 68.483C220.464 68.7292 221.184 68.8523 221.999 68.8523C222.567 68.8523 223.135 68.8049 223.703 68.7102C224.271 68.5966 224.707 68.5114 225.01 68.4545L226.913 77.4602C226.307 77.6496 225.455 77.8674 224.357 78.1136C223.258 78.3788 221.923 78.5398 220.351 78.5966C217.434 78.7102 214.877 78.322 212.68 77.4318C210.502 76.5417 208.807 75.1591 207.595 73.2841C206.383 71.4091 205.786 69.0417 205.805 66.1818V23.9091ZM253.419 78.8523C248.93 78.8523 245.067 77.9432 241.828 76.125C238.608 74.2879 236.127 71.6932 234.385 68.3409C232.643 64.9697 231.771 60.983 231.771 56.3807C231.771 51.892 232.643 47.9527 234.385 44.5625C236.127 41.1723 238.58 38.5303 241.743 36.6364C244.925 34.7424 248.656 33.7955 252.936 33.7955C255.815 33.7955 258.495 34.2595 260.976 35.1875C263.476 36.0966 265.654 37.4697 267.51 39.3068C269.385 41.1439 270.843 43.4545 271.885 46.2386C272.927 49.0038 273.447 52.2424 273.447 55.9545V59.2784H236.601V51.7784H262.055C262.055 50.036 261.677 48.4924 260.919 47.1477C260.161 45.803 259.11 44.7519 257.766 43.9943C256.44 43.2178 254.896 42.8295 253.135 42.8295C251.298 42.8295 249.669 43.2557 248.249 44.108C246.847 44.9413 245.749 46.0682 244.953 47.4886C244.158 48.8902 243.75 50.4527 243.732 52.1761V59.3068C243.732 61.4659 244.129 63.3314 244.925 64.9034C245.739 66.4754 246.885 67.6875 248.362 68.5398C249.839 69.392 251.591 69.8182 253.618 69.8182C254.963 69.8182 256.194 69.6288 257.311 69.25C258.429 68.8712 259.385 68.303 260.18 67.5455C260.976 66.7879 261.582 65.8598 261.999 64.7614L273.192 65.5C272.624 68.1894 271.459 70.5379 269.697 72.5455C267.955 74.5341 265.701 76.0871 262.936 77.2045C260.19 78.303 257.018 78.8523 253.419 78.8523ZM294.499 70.0455L294.186 73.1705C293.94 75.6705 293.466 78.161 292.766 80.642C292.084 83.142 291.364 85.4053 290.607 87.4318C289.868 89.4583 289.271 91.0492 288.817 92.2045H280.976C281.26 91.0871 281.648 89.5246 282.141 87.517C282.633 85.5284 283.097 83.2936 283.533 80.8125C283.968 78.3314 284.243 75.803 284.357 73.2273L284.499 70.0455H294.499ZM321.345 94.3636V34.3636H333.277V41.6932H333.817C334.347 40.5189 335.114 39.3258 336.118 38.1136C337.141 36.8826 338.466 35.8598 340.095 35.0455C341.743 34.2121 343.788 33.7955 346.232 33.7955C349.413 33.7955 352.349 34.6288 355.038 36.2955C357.728 37.9432 359.877 40.4337 361.487 43.767C363.097 47.0814 363.902 51.2386 363.902 56.2386C363.902 61.1061 363.116 65.2159 361.544 68.5682C359.991 71.9015 357.87 74.4299 355.18 76.1534C352.51 77.858 349.518 78.7102 346.203 78.7102C343.855 78.7102 341.857 78.322 340.209 77.5455C338.58 76.7689 337.245 75.7936 336.203 74.6193C335.161 73.4261 334.366 72.2235 333.817 71.0114H333.447V94.3636H321.345ZM333.192 56.1818C333.192 58.7765 333.552 61.0398 334.271 62.9716C334.991 64.9034 336.033 66.4091 337.396 67.4886C338.76 68.5492 340.417 69.0795 342.368 69.0795C344.338 69.0795 346.004 68.5398 347.368 67.4602C348.732 66.3617 349.764 64.8466 350.464 62.9148C351.184 60.964 351.544 58.7197 351.544 56.1818C351.544 53.6629 351.194 51.447 350.493 49.5341C349.792 47.6212 348.76 46.125 347.396 45.0455C346.033 43.9659 344.357 43.4261 342.368 43.4261C340.398 43.4261 338.732 43.947 337.368 44.9886C336.023 46.0303 334.991 47.5076 334.271 49.4205C333.552 51.3333 333.192 53.5871 333.192 56.1818ZM399.953 59.4205V34.3636H412.055V78H400.436V70.0739H399.982C398.997 72.6307 397.358 74.6856 395.067 76.2386C392.794 77.7917 390.019 78.5682 386.743 78.5682C383.826 78.5682 381.26 77.9053 379.044 76.5795C376.828 75.2538 375.095 73.3693 373.845 70.9261C372.614 68.483 371.989 65.5568 371.97 62.1477V34.3636H384.072V59.9886C384.091 62.5644 384.783 64.6004 386.146 66.0966C387.51 67.5928 389.338 68.3409 391.629 68.3409C393.088 68.3409 394.451 68.0095 395.72 67.3466C396.989 66.6648 398.012 65.661 398.788 64.3352C399.584 63.0095 399.972 61.3712 399.953 59.4205ZM421.963 78V19.8182H434.065V41.6932H434.435C434.965 40.5189 435.732 39.3258 436.736 38.1136C437.759 36.8826 439.084 35.8598 440.713 35.0455C442.361 34.2121 444.406 33.7955 446.849 33.7955C450.031 33.7955 452.967 34.6288 455.656 36.2955C458.346 37.9432 460.495 40.4337 462.105 43.767C463.715 47.0814 464.52 51.2386 464.52 56.2386C464.52 61.1061 463.734 65.2159 462.162 68.5682C460.609 71.9015 458.488 74.4299 455.798 76.1534C453.128 77.858 450.135 78.7102 446.821 78.7102C444.473 78.7102 442.474 78.322 440.827 77.5455C439.198 76.7689 437.863 75.7936 436.821 74.6193C435.779 73.4261 434.984 72.2235 434.435 71.0114H433.895V78H421.963ZM433.81 56.1818C433.81 58.7765 434.17 61.0398 434.889 62.9716C435.609 64.9034 436.651 66.4091 438.014 67.4886C439.378 68.5492 441.035 69.0795 442.986 69.0795C444.955 69.0795 446.622 68.5398 447.986 67.4602C449.349 66.3617 450.382 64.8466 451.082 62.9148C451.802 60.964 452.162 58.7197 452.162 56.1818C452.162 53.6629 451.812 51.447 451.111 49.5341C450.41 47.6212 449.378 46.125 448.014 45.0455C446.651 43.9659 444.974 43.4261 442.986 43.4261C441.016 43.4261 439.349 43.947 437.986 44.9886C436.641 46.0303 435.609 47.5076 434.889 49.4205C434.17 51.3333 433.81 53.5871 433.81 56.1818ZM484.697 19.8182V78H472.595V19.8182H484.697ZM494.392 78V34.3636H506.494V78H494.392ZM500.472 28.7386C498.672 28.7386 497.129 28.142 495.841 26.9489C494.572 25.7367 493.938 24.2879 493.938 22.6023C493.938 20.9356 494.572 19.5057 495.841 18.3125C497.129 17.1004 498.672 16.4943 500.472 16.4943C502.271 16.4943 503.805 17.1004 505.074 18.3125C506.362 19.5057 507.006 20.9356 507.006 22.6023C507.006 24.2879 506.362 25.7367 505.074 26.9489C503.805 28.142 502.271 28.7386 500.472 28.7386ZM552.496 46.8068L541.416 47.4886C541.227 46.5417 540.82 45.6894 540.195 44.9318C539.57 44.1553 538.746 43.5398 537.723 43.0852C536.719 42.6117 535.517 42.375 534.115 42.375C532.24 42.375 530.659 42.7727 529.371 43.5682C528.083 44.3447 527.439 45.3864 527.439 46.6932C527.439 47.7348 527.856 48.6155 528.689 49.3352C529.522 50.0549 530.952 50.6326 532.979 51.0682L540.876 52.6591C545.119 53.5303 548.282 54.9318 550.365 56.8636C552.448 58.7955 553.49 61.3333 553.49 64.4773C553.49 67.3371 552.647 69.8466 550.962 72.0057C549.295 74.1648 547.003 75.8504 544.087 77.0625C541.189 78.2557 537.846 78.8523 534.058 78.8523C528.282 78.8523 523.679 77.6496 520.251 75.2443C516.842 72.8201 514.844 69.5246 514.257 65.358L526.161 64.733C526.52 66.4943 527.392 67.839 528.774 68.767C530.157 69.6761 531.928 70.1307 534.087 70.1307C536.208 70.1307 537.912 69.7235 539.2 68.9091C540.507 68.0758 541.17 67.0057 541.189 65.6989C541.17 64.6004 540.706 63.7008 539.797 63C538.888 62.2803 537.486 61.7311 535.592 61.3523L528.036 59.8466C523.774 58.9943 520.602 57.517 518.518 55.4148C516.454 53.3125 515.422 50.6326 515.422 47.375C515.422 44.572 516.179 42.1572 517.695 40.1307C519.229 38.1042 521.378 36.5417 524.143 35.4432C526.928 34.3447 530.185 33.7955 533.916 33.7955C539.428 33.7955 543.765 34.9602 546.928 37.2898C550.109 39.6193 551.965 42.7917 552.496 46.8068ZM573.213 52.7727V78H561.111V19.8182H572.872V42.0625H573.384C574.368 39.4867 575.959 37.4697 578.156 36.0114C580.353 34.5341 583.109 33.7955 586.423 33.7955C589.454 33.7955 592.096 34.4583 594.349 35.7841C596.622 37.0909 598.384 38.9754 599.634 41.4375C600.902 43.8807 601.527 46.8068 601.509 50.2159V78H589.406V52.375C589.425 49.6856 588.743 47.5928 587.361 46.0966C585.997 44.6004 584.084 43.8523 581.622 43.8523C579.974 43.8523 578.516 44.2027 577.247 44.9034C575.997 45.6042 575.012 46.6269 574.293 47.9716C573.592 49.2973 573.232 50.8977 573.213 52.7727ZM624.186 70.0455L623.874 73.1705C623.627 75.6705 623.154 78.161 622.453 80.642C621.771 83.142 621.052 85.4053 620.294 87.4318C619.555 89.4583 618.959 91.0492 618.504 92.2045H610.663C610.947 91.0871 611.336 89.5246 611.828 87.517C612.321 85.5284 612.785 83.2936 613.22 80.8125C613.656 78.3314 613.93 75.803 614.044 73.2273L614.186 70.0455H624.186ZM663.476 78.8239C660.692 78.8239 658.211 78.3409 656.033 77.375C653.855 76.3902 652.131 74.9413 650.862 73.0284C649.612 71.0966 648.987 68.6913 648.987 65.8125C648.987 63.3883 649.432 61.3523 650.322 59.7045C651.213 58.0568 652.425 56.7311 653.959 55.7273C655.493 54.7235 657.235 53.9659 659.186 53.4545C661.156 52.9432 663.22 52.5833 665.379 52.375C667.917 52.1098 669.963 51.8636 671.516 51.6364C673.069 51.3902 674.196 51.0303 674.896 50.5568C675.597 50.0833 675.947 49.3826 675.947 48.4545V48.2841C675.947 46.4848 675.379 45.0928 674.243 44.108C673.125 43.1231 671.535 42.6307 669.47 42.6307C667.292 42.6307 665.559 43.1136 664.271 44.0795C662.983 45.0265 662.131 46.2197 661.714 47.6591L650.521 46.75C651.089 44.0985 652.207 41.8068 653.874 39.875C655.54 37.9242 657.69 36.428 660.322 35.3864C662.974 34.3258 666.042 33.7955 669.527 33.7955C671.951 33.7955 674.271 34.0795 676.487 34.6477C678.722 35.2159 680.701 36.0966 682.425 37.2898C684.167 38.483 685.54 40.017 686.544 41.892C687.548 43.7481 688.05 45.9735 688.05 48.5682V78H676.572V71.9489H676.232C675.531 73.3125 674.593 74.5152 673.419 75.5568C672.245 76.5795 670.834 77.3845 669.186 77.9716C667.538 78.5398 665.635 78.8239 663.476 78.8239ZM666.942 70.4716C668.722 70.4716 670.294 70.1212 671.658 69.4205C673.021 68.7008 674.091 67.7348 674.868 66.5227C675.644 65.3106 676.033 63.9375 676.033 62.4034V57.7727C675.654 58.0189 675.133 58.2462 674.47 58.4545C673.826 58.6439 673.097 58.8239 672.283 58.9943C671.468 59.1458 670.654 59.2879 669.839 59.4205C669.025 59.5341 668.286 59.6383 667.624 59.733C666.203 59.9413 664.963 60.2727 663.902 60.7273C662.841 61.1818 662.018 61.7973 661.43 62.5739C660.843 63.3314 660.55 64.2784 660.55 65.4148C660.55 67.0625 661.146 68.322 662.339 69.1932C663.552 70.0455 665.086 70.4716 666.942 70.4716ZM709.541 52.7727V78H697.439V34.3636H708.973V42.0625H709.484C710.45 39.5246 712.07 37.517 714.342 36.0398C716.615 34.5436 719.371 33.7955 722.609 33.7955C725.64 33.7955 728.282 34.4583 730.536 35.7841C732.789 37.1098 734.541 39.0038 735.791 41.4659C737.041 43.9091 737.666 46.8258 737.666 50.2159V78H725.564V52.375C725.583 49.7045 724.901 47.6212 723.518 46.125C722.136 44.6098 720.232 43.8523 717.808 43.8523C716.179 43.8523 714.74 44.2027 713.49 44.9034C712.259 45.6042 711.293 46.6269 710.592 47.9716C709.911 49.2973 709.56 50.8977 709.541 52.7727ZM763.284 78.7102C759.97 78.7102 756.968 77.858 754.278 76.1534C751.608 74.4299 749.487 71.9015 747.915 68.5682C746.362 65.2159 745.585 61.1061 745.585 56.2386C745.585 51.2386 746.39 47.0814 748 43.767C749.61 40.4337 751.75 37.9432 754.42 36.2955C757.11 34.6288 760.055 33.7955 763.256 33.7955C765.699 33.7955 767.735 34.2121 769.364 35.0455C771.011 35.8598 772.337 36.8826 773.341 38.1136C774.364 39.3258 775.14 40.5189 775.67 41.6932H776.04V19.8182H788.114V78H776.182V71.0114H775.67C775.102 72.2235 774.297 73.4261 773.256 74.6193C772.233 75.7936 770.898 76.7689 769.25 77.5455C767.621 78.322 765.633 78.7102 763.284 78.7102ZM767.119 69.0795C769.07 69.0795 770.718 68.5492 772.062 67.4886C773.426 66.4091 774.468 64.9034 775.188 62.9716C775.926 61.0398 776.295 58.7765 776.295 56.1818C776.295 53.5871 775.936 51.3333 775.216 49.4205C774.496 47.5076 773.455 46.0303 772.091 44.9886C770.727 43.947 769.07 43.4261 767.119 43.4261C765.131 43.4261 763.455 43.9659 762.091 45.0455C760.727 46.125 759.695 47.6212 758.994 49.5341C758.294 51.447 757.943 53.6629 757.943 56.1818C757.943 58.7197 758.294 60.964 758.994 62.9148C759.714 64.8466 760.746 66.3617 762.091 67.4602C763.455 68.5398 765.131 69.0795 767.119 69.0795ZM41.0398 131.364V140.455H14.7614V131.364H41.0398ZM20.7273 120.909H32.8295V161.591C32.8295 162.708 33 163.58 33.3409 164.205C33.6818 164.811 34.1553 165.237 34.7614 165.483C35.3864 165.729 36.1061 165.852 36.9205 165.852C37.4886 165.852 38.0568 165.805 38.625 165.71C39.1932 165.597 39.6288 165.511 39.9318 165.455L41.8352 174.46C41.2292 174.65 40.3769 174.867 39.2784 175.114C38.1799 175.379 36.8447 175.54 35.2727 175.597C32.3561 175.71 29.7992 175.322 27.6023 174.432C25.4242 173.542 23.7292 172.159 22.517 170.284C21.3049 168.409 20.7083 166.042 20.7273 163.182V120.909ZM68.3409 175.852C63.8523 175.852 59.9886 174.943 56.75 173.125C53.5303 171.288 51.0492 168.693 49.3068 165.341C47.5644 161.97 46.6932 157.983 46.6932 153.381C46.6932 148.892 47.5644 144.953 49.3068 141.562C51.0492 138.172 53.5019 135.53 56.6648 133.636C59.8466 131.742 63.5777 130.795 67.858 130.795C70.7367 130.795 73.4167 131.259 75.8977 132.188C78.3977 133.097 80.5758 134.47 82.4318 136.307C84.3068 138.144 85.7652 140.455 86.8068 143.239C87.8485 146.004 88.3693 149.242 88.3693 152.955V156.278H51.5227V148.778H76.9773C76.9773 147.036 76.5985 145.492 75.8409 144.148C75.0833 142.803 74.0322 141.752 72.6875 140.994C71.3617 140.218 69.8182 139.83 68.0568 139.83C66.2197 139.83 64.5909 140.256 63.1705 141.108C61.7689 141.941 60.6705 143.068 59.875 144.489C59.0795 145.89 58.6723 147.453 58.6534 149.176V156.307C58.6534 158.466 59.0511 160.331 59.8466 161.903C60.661 163.475 61.8068 164.688 63.2841 165.54C64.7614 166.392 66.5133 166.818 68.5398 166.818C69.8845 166.818 71.1155 166.629 72.233 166.25C73.3504 165.871 74.3068 165.303 75.1023 164.545C75.8977 163.788 76.5038 162.86 76.9205 161.761L88.1136 162.5C87.5455 165.189 86.3807 167.538 84.6193 169.545C82.8769 171.534 80.6231 173.087 77.858 174.205C75.1117 175.303 71.9394 175.852 68.3409 175.852ZM132.574 143.807L121.494 144.489C121.305 143.542 120.898 142.689 120.273 141.932C119.648 141.155 118.824 140.54 117.801 140.085C116.797 139.612 115.595 139.375 114.193 139.375C112.318 139.375 110.737 139.773 109.449 140.568C108.161 141.345 107.517 142.386 107.517 143.693C107.517 144.735 107.934 145.616 108.767 146.335C109.6 147.055 111.03 147.633 113.057 148.068L120.955 149.659C125.197 150.53 128.36 151.932 130.443 153.864C132.527 155.795 133.568 158.333 133.568 161.477C133.568 164.337 132.725 166.847 131.04 169.006C129.373 171.165 127.081 172.85 124.165 174.062C121.267 175.256 117.924 175.852 114.136 175.852C108.36 175.852 103.758 174.65 100.33 172.244C96.9205 169.82 94.9223 166.525 94.3352 162.358L106.239 161.733C106.598 163.494 107.47 164.839 108.852 165.767C110.235 166.676 112.006 167.131 114.165 167.131C116.286 167.131 117.991 166.723 119.278 165.909C120.585 165.076 121.248 164.006 121.267 162.699C121.248 161.6 120.784 160.701 119.875 160C118.966 159.28 117.564 158.731 115.67 158.352L108.114 156.847C103.852 155.994 100.68 154.517 98.5966 152.415C96.5322 150.312 95.5 147.633 95.5 144.375C95.5 141.572 96.2576 139.157 97.7727 137.131C99.3068 135.104 101.456 133.542 104.222 132.443C107.006 131.345 110.263 130.795 113.994 130.795C119.506 130.795 123.843 131.96 127.006 134.29C130.188 136.619 132.044 139.792 132.574 143.807ZM164.399 131.364V140.455H138.121V131.364H164.399ZM144.087 120.909H156.189V161.591C156.189 162.708 156.359 163.58 156.7 164.205C157.041 164.811 157.515 165.237 158.121 165.483C158.746 165.729 159.465 165.852 160.28 165.852C160.848 165.852 161.416 165.805 161.984 165.71C162.553 165.597 162.988 165.511 163.291 165.455L165.195 174.46C164.589 174.65 163.736 174.867 162.638 175.114C161.539 175.379 160.204 175.54 158.632 175.597C155.715 175.71 153.159 175.322 150.962 174.432C148.784 173.542 147.089 172.159 145.876 170.284C144.664 168.409 144.068 166.042 144.087 163.182V120.909ZM202.901 149.773V175H190.798V131.364H202.332V139.062H202.844C203.81 136.525 205.429 134.517 207.702 133.04C209.974 131.544 212.73 130.795 215.969 130.795C218.999 130.795 221.641 131.458 223.895 132.784C226.149 134.11 227.901 136.004 229.151 138.466C230.401 140.909 231.026 143.826 231.026 147.216V175H218.923V149.375C218.942 146.705 218.26 144.621 216.878 143.125C215.495 141.61 213.592 140.852 211.168 140.852C209.539 140.852 208.099 141.203 206.849 141.903C205.618 142.604 204.652 143.627 203.952 144.972C203.27 146.297 202.92 147.898 202.901 149.773ZM260.45 175.852C255.962 175.852 252.098 174.943 248.859 173.125C245.64 171.288 243.159 168.693 241.416 165.341C239.674 161.97 238.803 157.983 238.803 153.381C238.803 148.892 239.674 144.953 241.416 141.562C243.159 138.172 245.611 135.53 248.774 133.636C251.956 131.742 255.687 130.795 259.967 130.795C262.846 130.795 265.526 131.259 268.007 132.188C270.507 133.097 272.685 134.47 274.541 136.307C276.416 138.144 277.875 140.455 278.916 143.239C279.958 146.004 280.479 149.242 280.479 152.955V156.278H243.632V148.778H269.087C269.087 147.036 268.708 145.492 267.95 144.148C267.193 142.803 266.142 141.752 264.797 140.994C263.471 140.218 261.928 139.83 260.166 139.83C258.329 139.83 256.7 140.256 255.28 141.108C253.878 141.941 252.78 143.068 251.984 144.489C251.189 145.89 250.782 147.453 250.763 149.176V156.307C250.763 158.466 251.161 160.331 251.956 161.903C252.77 163.475 253.916 164.688 255.393 165.54C256.871 166.392 258.623 166.818 260.649 166.818C261.994 166.818 263.225 166.629 264.342 166.25C265.46 165.871 266.416 165.303 267.212 164.545C268.007 163.788 268.613 162.86 269.03 161.761L280.223 162.5C279.655 165.189 278.49 167.538 276.729 169.545C274.986 171.534 272.732 173.087 269.967 174.205C267.221 175.303 264.049 175.852 260.45 175.852ZM296.672 175L284.797 131.364H297.041L303.803 160.682H304.2L311.246 131.364H323.263L330.422 160.511H330.791L337.439 131.364H349.655L337.808 175H324.996L317.496 147.557H316.956L309.456 175H296.672ZM390.706 175.71C387.392 175.71 384.39 174.858 381.7 173.153C379.03 171.43 376.909 168.902 375.337 165.568C373.784 162.216 373.007 158.106 373.007 153.239C373.007 148.239 373.812 144.081 375.422 140.767C377.032 137.434 379.172 134.943 381.842 133.295C384.532 131.629 387.477 130.795 390.678 130.795C393.121 130.795 395.157 131.212 396.786 132.045C398.433 132.86 399.759 133.883 400.763 135.114C401.786 136.326 402.562 137.519 403.092 138.693H403.462V116.818H415.536V175H403.604V168.011H403.092C402.524 169.223 401.719 170.426 400.678 171.619C399.655 172.794 398.32 173.769 396.672 174.545C395.043 175.322 393.054 175.71 390.706 175.71ZM394.541 166.08C396.492 166.08 398.14 165.549 399.484 164.489C400.848 163.409 401.89 161.903 402.609 159.972C403.348 158.04 403.717 155.777 403.717 153.182C403.717 150.587 403.357 148.333 402.638 146.42C401.918 144.508 400.876 143.03 399.513 141.989C398.149 140.947 396.492 140.426 394.541 140.426C392.553 140.426 390.876 140.966 389.513 142.045C388.149 143.125 387.117 144.621 386.416 146.534C385.715 148.447 385.365 150.663 385.365 153.182C385.365 155.72 385.715 157.964 386.416 159.915C387.136 161.847 388.168 163.362 389.513 164.46C390.876 165.54 392.553 166.08 394.541 166.08ZM445.372 175.852C440.884 175.852 437.02 174.943 433.781 173.125C430.562 171.288 428.08 168.693 426.338 165.341C424.596 161.97 423.724 157.983 423.724 153.381C423.724 148.892 424.596 144.953 426.338 141.562C428.08 138.172 430.533 135.53 433.696 133.636C436.878 131.742 440.609 130.795 444.889 130.795C447.768 130.795 450.448 131.259 452.929 132.188C455.429 133.097 457.607 134.47 459.463 136.307C461.338 138.144 462.796 140.455 463.838 143.239C464.88 146.004 465.401 149.242 465.401 152.955V156.278H428.554V148.778H454.009C454.009 147.036 453.63 145.492 452.872 144.148C452.115 142.803 451.063 141.752 449.719 140.994C448.393 140.218 446.849 139.83 445.088 139.83C443.251 139.83 441.622 140.256 440.202 141.108C438.8 141.941 437.702 143.068 436.906 144.489C436.111 145.89 435.704 147.453 435.685 149.176V156.307C435.685 158.466 436.082 160.331 436.878 161.903C437.692 163.475 438.838 164.688 440.315 165.54C441.793 166.392 443.545 166.818 445.571 166.818C446.916 166.818 448.147 166.629 449.264 166.25C450.382 165.871 451.338 165.303 452.134 164.545C452.929 163.788 453.535 162.86 453.952 161.761L465.145 162.5C464.577 165.189 463.412 167.538 461.651 169.545C459.908 171.534 457.654 173.087 454.889 174.205C452.143 175.303 448.971 175.852 445.372 175.852ZM509.605 143.807L498.526 144.489C498.336 143.542 497.929 142.689 497.304 141.932C496.679 141.155 495.855 140.54 494.832 140.085C493.829 139.612 492.626 139.375 491.224 139.375C489.349 139.375 487.768 139.773 486.48 140.568C485.192 141.345 484.548 142.386 484.548 143.693C484.548 144.735 484.965 145.616 485.798 146.335C486.632 147.055 488.062 147.633 490.088 148.068L497.986 149.659C502.228 150.53 505.391 151.932 507.474 153.864C509.558 155.795 510.599 158.333 510.599 161.477C510.599 164.337 509.757 166.847 508.071 169.006C506.404 171.165 504.113 172.85 501.196 174.062C498.298 175.256 494.955 175.852 491.168 175.852C485.391 175.852 480.789 174.65 477.361 172.244C473.952 169.82 471.954 166.525 471.366 162.358L483.27 161.733C483.63 163.494 484.501 164.839 485.884 165.767C487.266 166.676 489.037 167.131 491.196 167.131C493.317 167.131 495.022 166.723 496.31 165.909C497.616 165.076 498.279 164.006 498.298 162.699C498.279 161.6 497.815 160.701 496.906 160C495.997 159.28 494.596 158.731 492.702 158.352L485.145 156.847C480.884 155.994 477.711 154.517 475.628 152.415C473.563 150.312 472.531 147.633 472.531 144.375C472.531 141.572 473.289 139.157 474.804 137.131C476.338 135.104 478.488 133.542 481.253 132.443C484.037 131.345 487.295 130.795 491.026 130.795C496.537 130.795 500.874 131.96 504.037 134.29C507.219 136.619 509.075 139.792 509.605 143.807ZM518.22 175V131.364H530.322V175H518.22ZM524.3 125.739C522.5 125.739 520.957 125.142 519.669 123.949C518.4 122.737 517.766 121.288 517.766 119.602C517.766 117.936 518.4 116.506 519.669 115.312C520.957 114.1 522.5 113.494 524.3 113.494C526.099 113.494 527.633 114.1 528.902 115.312C530.19 116.506 530.834 117.936 530.834 119.602C530.834 121.288 530.19 122.737 528.902 123.949C527.633 125.142 526.099 125.739 524.3 125.739ZM559.676 192.273C555.756 192.273 552.394 191.733 549.591 190.653C546.807 189.593 544.591 188.144 542.943 186.307C541.295 184.47 540.225 182.405 539.733 180.114L550.926 178.608C551.267 179.479 551.807 180.294 552.545 181.051C553.284 181.809 554.259 182.415 555.472 182.869C556.703 183.343 558.199 183.58 559.96 183.58C562.593 183.58 564.761 182.936 566.466 181.648C568.189 180.379 569.051 178.248 569.051 175.256V167.273H568.54C568.009 168.485 567.214 169.631 566.153 170.71C565.093 171.79 563.729 172.67 562.062 173.352C560.396 174.034 558.407 174.375 556.097 174.375C552.82 174.375 549.837 173.617 547.148 172.102C544.477 170.568 542.347 168.229 540.756 165.085C539.184 161.922 538.398 157.926 538.398 153.097C538.398 148.153 539.203 144.025 540.812 140.71C542.422 137.396 544.563 134.915 547.233 133.267C549.922 131.619 552.867 130.795 556.068 130.795C558.511 130.795 560.557 131.212 562.205 132.045C563.852 132.86 565.178 133.883 566.182 135.114C567.205 136.326 567.991 137.519 568.54 138.693H568.994V131.364H581.011V175.426C581.011 179.138 580.102 182.244 578.284 184.744C576.466 187.244 573.947 189.119 570.727 190.369C567.527 191.638 563.843 192.273 559.676 192.273ZM559.932 165.284C561.883 165.284 563.53 164.801 564.875 163.835C566.239 162.85 567.28 161.449 568 159.631C568.739 157.794 569.108 155.597 569.108 153.04C569.108 150.483 568.748 148.267 568.028 146.392C567.309 144.498 566.267 143.03 564.903 141.989C563.54 140.947 561.883 140.426 559.932 140.426C557.943 140.426 556.267 140.966 554.903 142.045C553.54 143.106 552.508 144.583 551.807 146.477C551.106 148.371 550.756 150.559 550.756 153.04C550.756 155.559 551.106 157.737 551.807 159.574C552.527 161.392 553.559 162.803 554.903 163.807C556.267 164.792 557.943 165.284 559.932 165.284ZM602.744 149.773V175H590.642V131.364H602.176V139.062H602.688C603.653 136.525 605.273 134.517 607.545 133.04C609.818 131.544 612.574 130.795 615.812 130.795C618.843 130.795 621.485 131.458 623.739 132.784C625.992 134.11 627.744 136.004 628.994 138.466C630.244 140.909 630.869 143.826 630.869 147.216V175H618.767V149.375C618.786 146.705 618.104 144.621 616.722 143.125C615.339 141.61 613.436 140.852 611.011 140.852C609.383 140.852 607.943 141.203 606.693 141.903C605.462 142.604 604.496 143.627 603.795 144.972C603.114 146.297 602.763 147.898 602.744 149.773ZM676.714 143.807L665.635 144.489C665.446 143.542 665.038 142.689 664.413 141.932C663.788 141.155 662.964 140.54 661.942 140.085C660.938 139.612 659.735 139.375 658.334 139.375C656.459 139.375 654.877 139.773 653.589 140.568C652.302 141.345 651.658 142.386 651.658 143.693C651.658 144.735 652.074 145.616 652.908 146.335C653.741 147.055 655.171 147.633 657.197 148.068L665.095 149.659C669.338 150.53 672.5 151.932 674.584 153.864C676.667 155.795 677.709 158.333 677.709 161.477C677.709 164.337 676.866 166.847 675.18 169.006C673.514 171.165 671.222 172.85 668.305 174.062C665.408 175.256 662.065 175.852 658.277 175.852C652.5 175.852 647.898 174.65 644.47 172.244C641.061 169.82 639.063 166.525 638.476 162.358L650.379 161.733C650.739 163.494 651.61 164.839 652.993 165.767C654.375 166.676 656.146 167.131 658.305 167.131C660.427 167.131 662.131 166.723 663.419 165.909C664.726 165.076 665.389 164.006 665.408 162.699C665.389 161.6 664.925 160.701 664.016 160C663.107 159.28 661.705 158.731 659.811 158.352L652.254 156.847C647.993 155.994 644.821 154.517 642.737 152.415C640.673 150.312 639.641 147.633 639.641 144.375C639.641 141.572 640.398 139.157 641.913 137.131C643.447 135.104 645.597 133.542 648.362 132.443C651.146 131.345 654.404 130.795 658.135 130.795C663.646 130.795 667.983 131.96 671.146 134.29C674.328 136.619 676.184 139.792 676.714 143.807ZM692.403 175.739C690.528 175.739 688.919 175.076 687.574 173.75C686.248 172.405 685.585 170.795 685.585 168.92C685.585 167.064 686.248 165.473 687.574 164.148C688.919 162.822 690.528 162.159 692.403 162.159C694.222 162.159 695.813 162.822 697.176 164.148C698.54 165.473 699.222 167.064 699.222 168.92C699.222 170.17 698.9 171.316 698.256 172.358C697.631 173.381 696.807 174.205 695.784 174.83C694.761 175.436 693.634 175.739 692.403 175.739Z" fill="black"/>
</svg>
