<svg xmlns="http://www.w3.org/2000/svg" fill="none" viewBox="5.29 85 224.62 210.66">
<path d="M42.408 259.258C37.417 249.268 20.6009 251.466 18.199 262.441C16.7497 269.063 22.8607 273.698 23.6501 279.899H37.6593C38.0712 278.241 38.9093 276.269 39.4897 275.056C40.696 272.538 42.4021 270.892 43.05 268.083C43.6663 265.409 43.5949 261.634 42.408 259.258Z" stroke="black" stroke-width="4" stroke-miterlimit="1.5" stroke-linecap="round" stroke-linejoin="round"/>
<path fill-rule="evenodd" clip-rule="evenodd" d="M23.393 288.351C23.389 286.437 23.2951 284.523 23.3283 282.61C23.3415 281.853 23.2121 280.926 23.8677 280.397C24.825 279.624 26.2491 279.511 27.4372 279.482C29.664 279.429 31.9079 279.448 34.137 279.453C35.1522 279.454 36.6673 279.278 37.5823 279.782C38.4532 280.262 38.6737 281.568 38.7716 282.451C38.9594 284.141 39.4592 287.917 38.0238 289.226C37.1196 290.05 35.7094 290.223 34.5516 290.366C31.4802 290.743 23.3976 290.668 23.393 288.351Z" stroke="black" stroke-width="4" stroke-miterlimit="1.5" stroke-linecap="round" stroke-linejoin="round"/>
<path d="M31.5785 290.528C31.6036 291.57 31.6159 292.617 31.534 293.656" stroke="black" stroke-width="4" stroke-miterlimit="1.5" stroke-linecap="round" stroke-linejoin="round"/>
<path d="M7.28943 274.629C8.38212 274.052 9.52329 273.578 10.6277 273.026" stroke="black" stroke-width="4" stroke-miterlimit="1.5" stroke-linecap="round" stroke-linejoin="round"/>
<path d="M7.28943 252.216C8.50917 252.99 9.67597 253.846 10.8985 254.614" stroke="black" stroke-width="4" stroke-miterlimit="1.5" stroke-linecap="round" stroke-linejoin="round"/>
<path d="M31.3649 243.035C31.322 241.501 31.3314 239.978 31.3805 238.444" stroke="black" stroke-width="4" stroke-miterlimit="1.5" stroke-linecap="round" stroke-linejoin="round"/>
<path d="M50.2477 253.484C51.7789 252.471 53.3558 251.519 54.9132 250.546" stroke="black" stroke-width="4" stroke-miterlimit="1.5" stroke-linecap="round" stroke-linejoin="round"/>
<path d="M47.5759 274.388C48.7566 275.446 49.9423 276.492 51.0852 277.591" stroke="black" stroke-width="4" stroke-miterlimit="1.5" stroke-linecap="round" stroke-linejoin="round"/>
<path fill-rule="evenodd" clip-rule="evenodd" d="M227.913 210.468C227.607 206.117 221.242 195.479 206.812 195.819C203.282 195.902 203.06 201.253 201.759 204.102C195.2 203.702 191.941 207.564 192.277 211.707C192.971 220.249 203.59 227.899 212.744 227.516C216.455 227.36 221.186 226.413 222.135 221.53C222.829 217.961 221.096 217.257 220.698 216.072C222.96 214.089 225.508 212.321 227.913 210.468Z" stroke="black" stroke-width="4" stroke-miterlimit="1.5" stroke-linecap="round" stroke-linejoin="round"/>
<path d="M201.906 203.834C201.015 205.661 200.225 207.567 199.568 209.469" stroke="black" stroke-width="4" stroke-miterlimit="1.5" stroke-linecap="round" stroke-linejoin="round"/>
<path d="M220.727 216.073C218.966 217.282 217.036 218.308 215.275 219.52" stroke="black" stroke-width="4" stroke-miterlimit="1.5" stroke-linecap="round" stroke-linejoin="round"/>
<path d="M193.595 229.63C195.746 227.639 197.465 225.195 199.419 223.044" stroke="black" stroke-width="4" stroke-miterlimit="1.5" stroke-linecap="round" stroke-linejoin="round"/>
<path d="M206.053 196.803C205.821 198.517 206.578 200.192 207.461 201.684C209.701 205.47 214.272 209.085 219.243 209.812" stroke="black" stroke-width="4" stroke-miterlimit="1.5" stroke-linecap="round" stroke-linejoin="round"/>
<path d="M71.5 110L167.5 96.5L199 172.5M167.5 218L109.5 203.5L62.5 241" stroke="black" stroke-width="3" stroke-linecap="round"/>
<path d="M23.2069 124.39C23.3796 123.251 24.7097 121.345 23.614 120.7C18.9996 117.984 13.7614 114.399 14.0084 109.029C14.1081 106.852 14.8398 104.16 16.6196 102.537C17.8241 101.44 20.0663 101.235 21.2313 102.555C22.4625 103.951 21.4376 106.196 21.3179 107.757C21.229 108.921 21.6207 109.933 23.1099 110.098C23.5614 110.148 24.0252 110.135 24.4767 110.089C25.1 110.025 25.6957 109.869 26.2333 109.586C28.0231 108.642 28.9891 106.106 29.0417 104.385C29.0748 103.29 28.621 102.165 27.3213 101.825C25.3017 101.296 23.2853 103.472 21.3691 102.482C21.0522 102.319 20.763 102.11 20.545 101.85C19.0558 100.078 20.7984 98.2085 22.4698 97.1634C24.0737 96.1603 26.1617 95.2565 28.174 95.1992C32.6688 95.072 35.3384 99.0204 35.9354 102.415C36.2591 99.1122 34.9694 95.8011 34.6928 92.5248C34.5714 91.0816 34.3964 89.4312 35.2196 88.1038C35.9377 86.9468 37.3888 86.6437 38.6395 87.4611C39.9302 88.3044 40.7316 89.7385 41.2865 91.0144C42.9403 94.8164 43.1533 98.9526 42.1419 102.875C43.4353 100.198 44.6887 97.4979 45.9499 94.8085C46.5347 93.5628 47.0025 92.0694 47.9835 91.3372C49.3426 90.322 51.092 90.6764 52 92.0093C52.7893 93.1679 52.8391 94.5347 52.6759 95.8408C52.3486 98.4642 51.0344 100.969 49.6227 103.272C48.0538 105.832 46.3855 108.398 44.1107 110.532C46.0406 109.173 47.8774 107.791 49.6522 106.28C51.3332 104.848 53.3251 102.116 55.769 101.576C57.5673 101.178 58.4037 102.492 58.4432 103.948C58.4935 105.795 57.0587 107.543 55.7413 108.888C53.0726 111.612 49.9074 113.965 46.4789 115.945C45.3234 116.612 44.1352 117.237 42.919 117.818C42.3854 118.073 41.4393 118.311 41.0281 118.691C40.5567 119.127 40.374 119.958 40.17 120.505C39.6418 121.919 39.1142 123.377 38.8127 124.842" stroke="black" stroke-width="4" stroke-miterlimit="1.5" stroke-linecap="round" stroke-linejoin="round"/>
</svg>