<svg xmlns="http://www.w3.org/2000/svg" fill="none" viewBox="4.95 208.85 665.56 103.48">
<path d="M649.839 223.464C652.305 228.814 658.713 231.319 664.153 229.058C669.593 226.797 672.004 220.627 669.538 215.276C667.072 209.926 660.664 207.422 655.224 209.683C649.784 211.944 647.373 218.114 649.839 223.464ZM5.91587 294.782C8.3817 300.133 14.7905 302.637 20.2304 300.376C25.6703 298.115 28.0812 291.945 25.6154 286.595C23.1495 281.244 16.7407 278.74 11.3008 281.001C5.86097 283.262 3.45004 289.432 5.91587 294.782ZM555.563 264.813L660.526 221.187L658.851 217.554L553.889 261.18L555.563 264.813ZM141.472 288.717L15.7134 288.717L15.8178 292.66L141.576 292.66L141.472 288.717Z" fill="black"/>
<path d="M377.155 285.482C376.348 279.647 370.952 275.477 365.102 276.169C359.251 276.861 355.163 282.153 355.969 287.988C356.775 293.824 362.172 297.994 368.022 297.302C373.872 296.61 377.961 291.318 377.155 285.482ZM532.01 265.151L366.288 284.754L366.835 288.717L532.557 269.114L532.01 265.151Z" fill="black"/>
<path d="M358.156 285.878L191.067 289.407" stroke="black" stroke-width="4"/>
<path fill-rule="evenodd" clip-rule="evenodd" d="M157.447 265.902C156.396 266.478 156.89 268.449 158.344 269.534C159.569 270.446 165.139 271.253 169.276 271.167C180.617 270.879 186.45 274.277 185.189 280.376C183.379 289.326 182.543 295.693 182.834 298.814C183.155 302.428 183.101 302.158 181.888 301.135C180.711 300.153 177.995 298.115 176.459 297.022C175.19 296.144 172.975 294.834 172.38 296.171C171.404 298.377 168.828 301.67 166.616 303.867C161.592 308.845 152.882 309.239 145.649 307.364C142.595 306.576 142.616 305.597 142.963 303.481C144.173 295.906 146.884 275.656 148.317 271.459C149.035 269.342 149.647 269.024 151.536 268.718C154.851 268.212 152.794 266.579 148.951 266.618C146.264 266.657 144.657 267.406 143.383 270.487C141.43 275.312 140.642 284.361 137.715 302.743C137.014 307.049 139.635 308.813 143.6 309.577C145.946 310.033 149.534 310.459 155.573 311.124C163.083 311.932 166.83 312.411 169.399 312.323C172.298 312.229 173.663 311.419 177.271 309.697C188.668 304.173 188.196 304.73 189.149 296.074C191.323 276.224 188.834 270.852 176.55 269.124C172.97 268.624 169.536 267.912 168.264 267.448C164.923 266.254 158.498 265.325 157.447 265.902ZM163.603 277.213C160.597 277.145 159.363 279.061 161.83 279.943C163.858 280.669 174.306 281.803 177.814 281.806C179.963 281.789 179.25 280.324 177.605 279.485C175.178 278.23 170.028 277.35 163.603 277.213ZM157.653 284.325C150.594 283.937 152.248 285.871 155.294 286.734C161.468 288.469 178.163 290.25 178.321 288.757C178.537 286.704 170.623 285.026 157.653 284.325ZM156.376 296.834C159.285 297.042 165.134 297.161 166.228 296.966C168.122 296.623 165.777 294.584 162.634 293.862C158.403 292.883 156.62 292.558 155.591 292.533C150.17 292.268 152.115 296.531 156.376 296.834ZM182.29 303.588C181.764 303.876 176.609 307.747 170.743 309.362C168.531 309.975 167.44 309.756 169.002 308.249C170.298 306.527 174.912 299.172 175.852 299.263C176.379 299.353 182.29 303.588 182.29 303.588Z" fill="black"/>
<path fill-rule="evenodd" clip-rule="evenodd" d="M539.152 242.92C535.589 247.022 530.449 262.153 530.019 269.624C529.762 274.134 530.116 274.241 536.937 271.858L541.806 270.165C540.082 287.707 540.226 285.852 540.219 286.023C539.817 289.808 543.363 290.763 544.914 287.292C544.928 287.258 559.928 260.892 561.351 253.601C561.518 252.775 561.037 252.103 559.628 251.813C557.312 251.334 554.795 251.92 545.968 254.763C544.592 255.216 543.921 255.324 543.93 255.096C543.858 253.414 543.33 246.449 543.337 243.64C543.35 240.353 542.536 239.004 539.152 242.92ZM539.99 248.86C540.006 249.443 540.272 256.796 540.272 257.104C540.217 258.586 540.953 259.041 542.664 258.534C548.347 256.843 550.597 256.143 552.826 255.339C556.519 254.017 556.475 253.866 554.416 259.005C552.233 264.504 546.204 277.643 545.875 277.526C545.583 277.422 546.006 270.122 546.371 268.653C547.026 265.999 546.387 265.925 541.193 268.06C538.86 269.019 537.382 269.571 536.243 269.955C535.18 270.308 534.048 269.539 534.126 268.469C534.436 264.497 535.837 259.124 538.621 251.106C539.919 247.486 539.946 247.419 539.99 248.86Z" fill="black"/>
</svg>