<svg width="124" height="43" viewBox="0 0 124 43" fill="none" xmlns="http://www.w3.org/2000/svg">
  <path
    d="M0.64 11.936C0.64 10.72 1.152 9.696 2.176 8.864C3.2 8 4.704 7.568 6.688 7.568V10.16C6.304 10.64 6 11.072 5.776 11.456L6.016 11.648C7.008 10.272 8.112 9.248 9.328 8.576C10.576 7.904 12.128 7.568 13.984 7.568C15.712 7.568 17.248 7.936 18.592 8.672C19.968 9.408 21.024 10.448 21.76 11.792C22.528 13.104 22.912 14.608 22.912 16.304V23.696C22.912 25.424 22.48 26.96 21.616 28.304C20.784 29.616 19.616 30.64 18.112 31.376C16.64 32.08 14.976 32.432 13.12 32.432C12.032 32.432 10.848 32.208 9.568 31.76C8.32 31.312 7.28 30.688 6.448 29.888L6.256 30.128C6.416 30.384 6.768 30.704 7.312 31.088V37.712C7.312 40.592 5.088 42.032 0.64 42.032V11.936ZM11.776 26.768C13.248 26.768 14.368 26.464 15.136 25.856C15.936 25.248 16.336 24.384 16.336 23.264V16.784C16.336 15.632 15.936 14.752 15.136 14.144C14.368 13.536 13.248 13.232 11.776 13.232C10.432 13.232 9.328 13.552 8.464 14.192C7.632 14.8 7.216 15.584 7.216 16.544V23.456C7.216 24.384 7.632 25.168 8.464 25.808C9.328 26.448 10.432 26.768 11.776 26.768ZM40.2261 13.232C38.3061 13.232 36.7541 13.728 35.5701 14.72C34.3861 15.712 33.7941 16.96 33.7941 18.464V28.592C33.7941 29.968 33.2501 30.96 32.1621 31.568C31.1061 32.144 29.4581 32.432 27.2181 32.432V12.56C27.2181 10.96 27.7461 9.728 28.8021 8.864C29.8581 8 31.4261 7.568 33.5061 7.568V10.4C33.0261 10.912 32.6261 11.456 32.3061 12.032L32.6421 12.224C34.6581 9.12 37.1701 7.568 40.1781 7.568C41.6181 7.568 42.7061 7.952 43.4421 8.72C44.1781 9.488 44.5461 10.464 44.5461 11.648C44.5461 12.544 44.3061 13.328 43.8261 14C42.9301 13.488 41.7301 13.232 40.2261 13.232ZM55.633 32.432C53.521 32.432 51.601 32.048 49.873 31.28C48.145 30.512 46.785 29.456 45.793 28.112C44.801 26.736 44.305 25.184 44.305 23.456V17.072C44.305 15.312 44.785 13.712 45.745 12.272C46.705 10.8 48.049 9.648 49.777 8.816C51.505 7.984 53.457 7.568 55.633 7.568C57.809 7.568 59.761 7.984 61.489 8.816C63.217 9.648 64.561 10.8 65.521 12.272C66.481 13.712 66.961 15.312 66.961 17.072V23.456C66.961 25.184 66.465 26.736 65.473 28.112C64.481 29.456 63.121 30.512 61.393 31.28C59.665 32.048 57.745 32.432 55.633 32.432ZM55.633 26.768C57.137 26.768 58.305 26.432 59.137 25.76C59.969 25.088 60.385 24.16 60.385 22.976V17.408C60.385 16.16 59.953 15.152 59.089 14.384C58.257 13.616 57.105 13.232 55.633 13.232C54.161 13.232 52.993 13.616 52.129 14.384C51.297 15.152 50.881 16.16 50.881 17.408V22.976C50.881 24.16 51.297 25.088 52.129 25.76C52.961 26.432 54.129 26.768 55.633 26.768ZM81.1724 32.432C78.4524 32.432 76.4524 31.648 75.1724 30.08C73.8924 28.512 73.2524 26.496 73.2524 24.032V12.848H68.1644C68.1644 11.216 68.4684 10 69.0764 9.2C69.6844 8.4 70.4844 8 71.4764 8H73.3484V4.208C73.3484 2.832 73.8764 1.856 74.9324 1.28C75.9884 0.671998 77.5884 0.367998 79.7324 0.367998V8H86.1164C86.1164 9.728 85.7964 10.976 85.1564 11.744C84.5164 12.48 83.4604 12.848 81.9884 12.848H79.8284V23.792C79.8284 24.848 80.0364 25.616 80.4524 26.096C80.8684 26.544 81.5884 26.768 82.6124 26.768C83.7324 26.768 84.8844 26.448 86.0684 25.808C86.4204 26.128 86.6924 26.528 86.8844 27.008C87.1084 27.488 87.2204 27.968 87.2204 28.448C87.2204 29.088 86.9964 29.712 86.5484 30.32C86.1004 30.928 85.4124 31.44 84.4844 31.856C83.5884 32.24 82.4844 32.432 81.1724 32.432ZM100.68 32.432C98.5679 32.432 96.6479 32.048 94.9199 31.28C93.1919 30.512 91.8319 29.456 90.8399 28.112C89.8479 26.736 89.3519 25.184 89.3519 23.456V17.072C89.3519 15.312 89.8319 13.712 90.7919 12.272C91.7519 10.8 93.0959 9.648 94.8239 8.816C96.5519 7.984 98.5039 7.568 100.68 7.568C102.856 7.568 104.808 7.984 106.536 8.816C108.264 9.648 109.608 10.8 110.568 12.272C111.528 13.712 112.008 15.312 112.008 17.072V23.456C112.008 25.184 111.512 26.736 110.52 28.112C109.528 29.456 108.168 30.512 106.44 31.28C104.712 32.048 102.792 32.432 100.68 32.432ZM100.68 26.768C102.184 26.768 103.352 26.432 104.184 25.76C105.016 25.088 105.432 24.16 105.432 22.976V17.408C105.432 16.16 105 15.152 104.136 14.384C103.304 13.616 102.152 13.232 100.68 13.232C99.2079 13.232 98.0399 13.616 97.1759 14.384C96.3439 15.152 95.9279 16.16 95.9279 17.408V22.976C95.9279 24.16 96.3439 25.088 97.1759 25.76C98.0079 26.432 99.1759 26.768 100.68 26.768ZM119.304 32.432C118.216 32.432 117.288 32.08 116.52 31.376C115.752 30.64 115.368 29.712 115.368 28.592C115.368 27.472 115.752 26.544 116.52 25.808C117.288 25.072 118.216 24.704 119.304 24.704C120.392 24.704 121.32 25.072 122.088 25.808C122.888 26.544 123.288 27.472 123.288 28.592C123.288 29.712 122.888 30.64 122.088 31.376C121.32 32.08 120.392 32.432 119.304 32.432Z"
    fill="black" />
</svg>