<svg width="478" height="585" viewBox="0 0 478 585" fill="none" xmlns="http://www.w3.org/2000/svg">
<rect x="59" y="2" width="417" height="530" rx="8" fill="#FFD6D6" stroke="black" stroke-width="4"/>
<rect x="2" y="53" width="417" height="530" rx="8" fill="white" stroke="black" stroke-width="4"/>
<rect x="33" y="87" width="350" height="100" rx="8" stroke="black" stroke-width="4"/>
<rect x="36" y="216" width="102" height="100" rx="8" stroke="black" stroke-width="4"/>
<rect x="160" y="216" width="101" height="100" rx="8" stroke="black" stroke-width="4"/>
<rect x="281" y="216" width="102" height="100" rx="8" stroke="black" stroke-width="4"/>
<path d="M40 219L134.5 313.5M40 313.5L134.5 219M163.5 313.5L257 219M257 313.5L163.5 219M283.5 313.5L378.5 219M283.5 219L378.5 313.5" stroke="black" stroke-width="3" stroke-linecap="round"/>
<path d="M42 348H380" stroke="black" stroke-width="3" stroke-linecap="round"/>
<path d="M42 369.5H380" stroke="black" stroke-width="3" stroke-linecap="round"/>
<path d="M42 390.5H380" stroke="black" stroke-width="3" stroke-linecap="round"/>
<path d="M42 411.5H380" stroke="black" stroke-width="3" stroke-linecap="round"/>
<path d="M42 432.5H380" stroke="black" stroke-width="3" stroke-linecap="round"/>
<rect x="36" y="460" width="350" height="100" rx="8" stroke="black" stroke-width="4"/>
</svg>
